<svg xmlns="http://www.w3.org/2000/svg" width="51.563" height="48"><path data-name="Forma 1" d="M51.481 14.309c-.753-8.3-6.619-14.316-13.96-14.316a13.873 13.873 0 0 0-11.884 6.858 13.37 13.37 0 0 0-11.6-6.859C6.694-.008.827 6.011.075 14.308a14.779 14.779 0 0 0 .438 5.441 23.341 23.341 0 0 0 7.142 11.93l17.97 16.326L43.904 31.68a23.344 23.344 0 0 0 7.142-11.932 14.813 14.813 0 0 0 .435-5.439zm-2.371 4.985A21.347 21.347 0 0 1 42.581 30.2L25.637 45.334 8.988 30.208a21.361 21.361 0 0 1-6.543-10.915 12.913 12.913 0 0 1-.413-4.669l.015-.1C2.692 7.255 7.732 1.978 14.034 1.978a11.629 11.629 0 0 1 10.684 7.464l.914 2.168.914-2.168a11.984 11.984 0 0 1 10.98-7.463c6.3 0 11.342 5.277 12 12.64a12.9 12.9 0 0 1-.412 4.675z" fill-rule="evenodd"/></svg>